<?xml version="1.0" encoding="utf-8"?>
<svg viewBox="0 0 500 500" xmlns="http://www.w3.org/2000/svg">
  <path d="M 499.999 250 C 499.999 387.781 388.07 499.474 249.999 499.474 C 111.928 499.474 0 387.781 0 250 C 0 112.219 111.928 0.526 249.999 0.526 C 388.07 0.526 499.999 112.219 499.999 250 Z M 122.56 266.356 L 168.64 266.356 L 214.08 358.836 L 245.76 358.836 L 196.8 262.516 C 212.8 257.823 224.587 249.823 232.16 238.516 C 239.733 227.209 243.52 214.516 243.52 200.436 C 243.52 188.276 240.853 177.183 235.52 167.156 C 230.187 157.129 221.973 149.236 210.88 143.476 C 199.787 137.716 185.493 134.836 168 134.836 L 95.68 134.836 L 95.68 358.836 L 122.56 358.836 Z M 165.76 157.556 C 183.467 157.556 196.213 161.449 204 169.236 C 211.787 177.023 215.68 187.529 215.68 200.756 C 215.68 213.769 211.733 224.436 203.84 232.756 C 195.947 241.076 183.36 245.236 166.08 245.236 L 122.56 245.236 L 122.56 157.556 Z M 292.316 271.476 L 317.276 244.916 L 388.316 358.836 L 420.956 358.836 L 336.476 224.116 L 419.676 134.836 L 385.756 134.836 L 292.316 236.276 L 292.316 134.836 L 265.436 134.836 L 265.436 358.836 L 292.316 358.836 Z" style=""/>
</svg>