<?xml version="1.0" encoding="utf-8"?>
<svg viewBox="0 0 500 500" xmlns="http://www.w3.org/2000/svg">
  <path d="M 499.999 250 C 499.999 387.781 388.07 499.474 249.999 499.474 C 111.928 499.474 0 387.781 0 250 C 0 112.219 111.928 0.526 249.999 0.526 C 388.07 0.526 499.999 112.219 499.999 250 Z M 119.433 268.307 L 160.063 268.307 L 204.263 355.123 L 244.243 355.123 L 195.813 263.685 C 211.633 258.967 223.28 251.169 230.753 240.287 C 238.227 229.413 241.963 217.304 241.963 203.96 C 241.963 192.056 239.147 181.233 233.513 171.488 C 227.88 161.738 219.267 153.99 207.673 148.243 C 196.087 142.496 181.3 139.623 163.313 139.623 L 84.983 139.623 L 84.983 355.123 L 119.433 355.123 Z M 161.043 167.017 C 177.07 167.017 188.66 170.456 195.813 177.333 C 202.967 184.21 206.543 193.395 206.543 204.889 C 206.543 216.382 202.913 225.719 195.653 232.899 C 188.393 240.086 176.963 243.679 161.363 243.679 L 119.433 243.679 L 119.433 167.017 Z M 297.032 274.464 L 320.432 250.452 L 389.342 355.123 L 431.262 355.123 L 345.142 225.51 L 429.312 139.623 L 386.732 139.623 L 297.032 231.98 L 297.032 139.623 L 262.582 139.623 L 262.582 355.123 L 297.032 355.123 Z"/>
</svg>
