<?xml version="1.0" encoding="utf-8"?>
<svg viewBox="0 0 500 500" xmlns="http://www.w3.org/2000/svg">
  <path d="M 499.999 250 C 499.999 387.781 388.07 499.474 249.999 499.474 C 111.928 499.474 0 387.781 0 250 C 0 112.219 111.928 0.526 249.999 0.526 C 388.07 0.526 499.999 112.219 499.999 250 Z M 118.436 268.186 L 159.066 268.186 L 203.266 359.836 L 243.246 359.836 L 194.816 263.306 C 210.636 258.326 222.282 250.093 229.756 238.606 C 237.229 227.126 240.966 214.343 240.966 200.256 C 240.966 187.689 238.149 176.263 232.516 165.976 C 226.882 155.683 218.269 147.503 206.676 141.436 C 195.089 135.369 180.302 132.336 162.316 132.336 L 83.986 132.336 L 83.986 359.836 L 118.436 359.836 Z M 160.046 161.256 C 176.072 161.256 187.662 164.886 194.816 172.146 C 201.969 179.406 205.546 189.103 205.546 201.236 C 205.546 213.369 201.916 223.226 194.656 230.806 C 187.396 238.393 175.966 242.186 160.366 242.186 L 118.436 242.186 L 118.436 161.256 Z M 296.033 274.686 L 319.433 249.336 L 388.343 359.836 L 430.263 359.836 L 344.143 223.006 L 428.313 132.336 L 385.733 132.336 L 296.033 229.836 L 296.033 132.336 L 261.583 132.336 L 261.583 359.836 L 296.033 359.836 Z"/>
</svg>
